<?xml version="1.0" encoding="UTF-8" standalone="no"?>
<!-- Creator: CorelDRAW X8 -->

<svg
   xmlns:dc="http://purl.org/dc/elements/1.1/"
   xmlns:cc="http://creativecommons.org/ns#"
   xmlns:rdf="http://www.w3.org/1999/02/22-rdf-syntax-ns#"
   xmlns:svg="http://www.w3.org/2000/svg"
   xmlns="http://www.w3.org/2000/svg"
   xmlns:sodipodi="http://sodipodi.sourceforge.net/DTD/sodipodi-0.dtd"
   xmlns:inkscape="http://www.inkscape.org/namespaces/inkscape"
   xml:space="preserve"
   width="25.0847in"
   height="22.5371in"
   version="1.0"
   shape-rendering="geometricPrecision"
   text-rendering="geometricPrecision"
   image-rendering="optimizeQuality"
   fill-rule="evenodd"
   clip-rule="evenodd"
   viewBox="0 0 1536 1380"
   id="svg2"
   inkscape:version="0.91 r13725"
   sodipodi:docname="games.svg"><metadata
     id="metadata65"><rdf:RDF><cc:Work
         rdf:about=""><dc:format>image/svg+xml</dc:format><dc:type
           rdf:resource="http://purl.org/dc/dcmitype/StillImage" /></cc:Work></rdf:RDF></metadata><defs
     id="defs63" /><sodipodi:namedview
     pagecolor="#ffffff"
     bordercolor="#666666"
     borderopacity="1"
     objecttolerance="10"
     gridtolerance="10"
     guidetolerance="10"
     inkscape:pageopacity="0"
     inkscape:pageshadow="2"
     inkscape:window-width="1627"
     inkscape:window-height="977"
     id="namedview61"
     showgrid="false"
     inkscape:zoom="0.11635136"
     inkscape:cx="1163.1901"
     inkscape:cy="1014.1695"
     inkscape:window-x="53"
     inkscape:window-y="24"
     inkscape:window-maximized="0"
     inkscape:current-layer="svg2" /><g
     id="Layer_x0020_1"
     style="fill:#ffffff"><metadata
       id="CorelCorpID_0Corel-Layer" /><g
       id="_1361805320176"
       style="fill:#ffffff"><g
         id="g7"
         style="fill:#ffffff"><g
           id="g9"
           style="fill:#ffffff"><path
             fill="#BA70FF"
             d="M150 1200c-17,0 -30,14 -30,30 0,17 13,30 30,30 17,0 30,-13 30,-30 0,-16 -13,-30 -30,-30z"
             id="path11"
             style="fill:#ffffff" /></g></g><g
         id="g13"
         style="fill:#ffffff"><g
           id="g15"
           style="fill:#ffffff"><path
             fill="#BA70FF"
             d="M480 780c-66,0 -120,54 -120,120 0,66 54,120 120,120 66,0 120,-54 120,-120 0,-66 -54,-120 -120,-120zm0 180c-33,0 -60,-27 -60,-60 0,-33 27,-60 60,-60 33,0 60,27 60,60 0,33 -27,60 -60,60z"
             id="path17"
             style="fill:#ffffff" /></g></g><g
         id="g19"
         style="fill:#ffffff"><g
           id="g21"
           style="fill:#ffffff"><path
             fill="#BA70FF"
             d="M240 540c-66,0 -120,54 -120,120 0,66 54,120 120,120 66,0 120,-54 120,-120 0,-66 -54,-120 -120,-120zm0 180c-33,0 -60,-27 -60,-60 0,-33 27,-60 60,-60 33,0 60,27 60,60 0,33 -27,60 -60,60z"
             id="path23"
             style="fill:#ffffff" /></g></g><g
         id="g25"
         style="fill:#ffffff"><g
           id="g27"
           style="fill:#ffffff"><path
             fill="#BA70FF"
             d="M1386 0l-660 0c-83,0 -150,67 -150,150l0 270 -426 0c-83,0 -150,67 -150,150l0 660c0,83 67,150 150,150l660 0c83,0 150,-67 150,-150l0 -270 426 0c83,0 150,-67 150,-150l0 -660c0,-83 -67,-150 -150,-150zm-486 1230c0,50 -40,90 -90,90l-660 0c-50,0 -90,-40 -90,-90l0 -660c0,-50 40,-90 90,-90l660 0c50,0 90,40 90,90l0 660zm576 -420c0,50 -40,90 -90,90l-426 0 0 -330c0,-83 -67,-150 -150,-150l-174 0 0 -270c0,-50 40,-90 90,-90l660 0c50,0 90,40 90,90l0 660z"
             id="path29"
             style="fill:#ffffff" /></g></g><g
         id="g31"
         style="fill:#ffffff"><g
           id="g33"
           style="fill:#ffffff"><path
             fill="#BA70FF"
             d="M816 120c-66,0 -120,54 -120,120 0,66 54,120 120,120 66,0 120,-54 120,-120 0,-66 -54,-120 -120,-120zm0 180c-33,0 -60,-27 -60,-60 0,-33 27,-60 60,-60 33,0 60,27 60,60 0,33 -27,60 -60,60z"
             id="path35"
             style="fill:#ffffff" /></g></g><g
         id="g37"
         style="fill:#ffffff"><g
           id="g39"
           style="fill:#ffffff"><path
             fill="#BA70FF"
             d="M1296 600c-66,0 -120,54 -120,120 0,66 54,120 120,120 66,0 120,-54 120,-120 0,-66 -54,-120 -120,-120zm0 180c-33,0 -60,-27 -60,-60 0,-33 27,-60 60,-60 33,0 60,27 60,60 0,33 -27,60 -60,60z"
             id="path41"
             style="fill:#ffffff" /></g></g><g
         id="g43"
         style="fill:#ffffff"><g
           id="g45"
           style="fill:#ffffff"><path
             fill="#BA70FF"
             d="M1296 120c-66,0 -120,54 -120,120 0,66 54,120 120,120 66,0 120,-54 120,-120 0,-66 -54,-120 -120,-120zm0 180c-33,0 -60,-27 -60,-60 0,-33 27,-60 60,-60 33,0 60,27 60,60 0,33 -27,60 -60,60z"
             id="path47"
             style="fill:#ffffff" /></g></g><g
         id="g49"
         style="fill:#ffffff"><g
           id="g51"
           style="fill:#ffffff"><path
             fill="#BA70FF"
             d="M720 1020c-66,0 -120,54 -120,120 0,66 54,120 120,120 66,0 120,-54 120,-120 0,-66 -54,-120 -120,-120zm0 180c-33,0 -60,-27 -60,-60 0,-33 27,-60 60,-60 33,0 60,27 60,60 0,33 -27,60 -60,60z"
             id="path53"
             style="fill:#ffffff" /></g></g><g
         id="g55"
         style="fill:#ffffff"><g
           id="g57"
           style="fill:#ffffff"><path
             fill="#BA70FF"
             d="M390 1200l-120 0c-17,0 -30,14 -30,30 0,17 13,30 30,30l120 0c17,0 30,-13 30,-30 0,-16 -13,-30 -30,-30z"
             id="path59"
             style="fill:#ffffff" /></g></g></g></g></svg>