<?xml version="1.0" encoding="UTF-8" standalone="no"?>
<!-- Creator: CorelDRAW X8 -->

<svg
   xmlns:dc="http://purl.org/dc/elements/1.1/"
   xmlns:cc="http://creativecommons.org/ns#"
   xmlns:rdf="http://www.w3.org/1999/02/22-rdf-syntax-ns#"
   xmlns:svg="http://www.w3.org/2000/svg"
   xmlns="http://www.w3.org/2000/svg"
   xmlns:sodipodi="http://sodipodi.sourceforge.net/DTD/sodipodi-0.dtd"
   xmlns:inkscape="http://www.inkscape.org/namespaces/inkscape"
   xml:space="preserve"
   width="23.8176in"
   height="23.8176in"
   version="1.0"
   shape-rendering="geometricPrecision"
   text-rendering="geometricPrecision"
   image-rendering="optimizeQuality"
   fill-rule="evenodd"
   clip-rule="evenodd"
   viewBox="0 0 2632 2632"
   id="svg2"
   inkscape:version="0.91 r13725"
   sodipodi:docname="hosts.svg"><metadata
     id="metadata41"><rdf:RDF><cc:Work
         rdf:about=""><dc:format>image/svg+xml</dc:format><dc:type
           rdf:resource="http://purl.org/dc/dcmitype/StillImage" /></cc:Work></rdf:RDF></metadata><defs
     id="defs39" /><sodipodi:namedview
     pagecolor="#ffffff"
     bordercolor="#666666"
     borderopacity="1"
     objecttolerance="10"
     gridtolerance="10"
     guidetolerance="10"
     inkscape:pageopacity="0"
     inkscape:pageshadow="2"
     inkscape:window-width="1208"
     inkscape:window-height="881"
     id="namedview37"
     showgrid="false"
     inkscape:zoom="0.11009599"
     inkscape:cx="1108.1239"
     inkscape:cy="1071.792"
     inkscape:window-x="53"
     inkscape:window-y="24"
     inkscape:window-maximized="0"
     inkscape:current-layer="svg2" /><g
     id="Layer_x0020_1"
     style="fill:#ffffff"><metadata
       id="CorelCorpID_0Corel-Layer" /><g
       id="_2848970300816"
       style="fill:#ffffff"><g
         id="g7"
         style="fill:#ffffff"><g
           id="g9"
           style="fill:#ffffff"><path
             fill="#BA70FF"
             d="M0 2335c0,70 57,127 127,127l213 0 0 85 -170 0 0 85 934 0 0 -85 -170 0 0 -85 212 0c70,0 128,-57 128,-127l0 -127 -1274 0 0 127zm849 212l-424 0 0 -85 424 0 0 85zm-764 -254l1104 0 0 42c0,23 -19,42 -43,42l-1019 0c-23,0 -42,-19 -42,-42l0 -42z"
             id="path11"
             style="fill:#ffffff" /><path
             fill="#BA70FF"
             d="M1146 1443l-1019 0c-70,0 -127,58 -127,128l0 552 85 0 0 -552c0,-24 19,-43 42,-43l1019 0c24,0 43,19 43,43l0 552 85 0 0 -552c0,-70 -58,-128 -128,-128z"
             id="path13"
             style="fill:#ffffff" /><path
             fill="#BA70FF"
             d="M1359 2335c0,70 57,127 127,127l212 0 0 85 -170 0 0 85 934 0 0 -85 -169 0 0 -85 212 0c70,0 127,-57 127,-127l0 -127 -1273 0 0 127zm849 212l-425 0 0 -85 425 0 0 85zm-765 -254l1104 0 0 42c0,23 -19,42 -42,42l-1019 0c-23,0 -43,-19 -43,-42l0 -42z"
             id="path15"
             style="fill:#ffffff" /><path
             fill="#BA70FF"
             d="M2505 1443l-1019 0c-70,0 -127,58 -127,128l0 552 84 0 0 -552c0,-24 20,-43 43,-43l1019 0c23,0 42,19 42,43l0 552 85 0 0 -552c0,-70 -57,-128 -127,-128z"
             id="path17"
             style="fill:#ffffff" /><path
             fill="#BA70FF"
             d="M892 1189l849 0c46,0 85,-38 85,-85l0 -170c0,-47 -39,-85 -85,-85l-43 0 0 -85 43 0c46,0 85,-38 85,-85l0 -170c0,-46 -39,-84 -85,-84l-43 0 0 -85 43 0c46,0 85,-38 85,-85l0 -170c0,-47 -39,-85 -85,-85l-849 0c-47,0 -85,38 -85,85l0 170c0,47 38,85 85,85l42 0 0 85 -42 0c-47,0 -85,38 -85,84l0 170c0,47 38,85 85,85l42 0 0 85 -42 0c-47,0 -85,38 -85,85l0 170c0,47 38,85 85,85zm0 -934l0 -170 0 0 849 0 0 170 -849 0zm721 85l0 85 -594 0 0 -85 594 0zm-721 339l0 -170 0 0 849 0 0 170 -849 0zm721 85l0 85 -594 0 0 -85 594 0zm-721 170l849 0 0 170 -849 0 0 -170 0 0z"
             id="path19"
             style="fill:#ffffff" /><path
             fill="#BA70FF"
             d="M2080 1231c0,70 57,128 128,128 70,0 127,-58 127,-128 0,-70 -57,-127 -127,-127 -71,0 -128,57 -128,127zm170 0c0,24 -19,43 -42,43 -24,0 -43,-19 -43,-43 0,-23 19,-42 43,-42 23,0 42,19 42,42z"
             id="path21"
             style="fill:#ffffff" /><path
             fill="#BA70FF"
             d="M2377 1061c0,71 58,128 128,128 70,0 127,-57 127,-128 0,-70 -57,-127 -127,-127 -70,0 -128,57 -128,127zm170 0c0,24 -19,43 -42,43 -24,0 -43,-19 -43,-43 0,-23 19,-42 43,-42 23,0 42,19 42,42z"
             id="path23"
             style="fill:#ffffff" /><path
             fill="#BA70FF"
             d="M2462 467l0 382 85 0 0 -382c0,-117 -95,-212 -212,-212l-425 0 0 85 425 0c70,0 127,57 127,127z"
             id="path25"
             style="fill:#ffffff" /><path
             fill="#BA70FF"
             d="M2165 552l0 467 85 0 0 -467c0,-70 -57,-127 -127,-127l-213 0 0 84 213 0c23,0 42,20 42,43z"
             id="path27"
             style="fill:#ffffff" /><path
             fill="#BA70FF"
             d="M297 1231c0,70 57,128 128,128 70,0 127,-58 127,-128 0,-70 -57,-127 -127,-127 -71,0 -128,57 -128,127zm170 0c0,24 -19,43 -42,43 -24,0 -43,-19 -43,-43 0,-23 19,-42 43,-42 23,0 42,19 42,42z"
             id="path29"
             style="fill:#ffffff" /><path
             fill="#BA70FF"
             d="M127 1189c71,0 128,-57 128,-128 0,-70 -57,-127 -128,-127 -70,0 -127,57 -127,127 0,71 57,128 127,128zm0 -170c24,0 43,19 43,42 0,24 -19,43 -43,43 -23,0 -42,-19 -42,-43 0,-23 19,-42 42,-42z"
             id="path31"
             style="fill:#ffffff" /><path
             fill="#BA70FF"
             d="M170 467c0,-70 57,-127 127,-127l425 0 0 -85 -425 0c-117,0 -212,95 -212,212l0 382 85 0 0 -382z"
             id="path33"
             style="fill:#ffffff" /><path
             fill="#BA70FF"
             d="M722 425l-213 0c-70,0 -127,57 -127,127l0 467 85 0 0 -467c0,-23 19,-43 42,-43l213 0 0 -84z"
             id="path35"
             style="fill:#ffffff" /></g></g></g></g></svg>