<?xml version="1.0" encoding="UTF-8" standalone="no"?>
<!-- Creator: CorelDRAW X8 -->

<svg
   xmlns:dc="http://purl.org/dc/elements/1.1/"
   xmlns:cc="http://creativecommons.org/ns#"
   xmlns:rdf="http://www.w3.org/1999/02/22-rdf-syntax-ns#"
   xmlns:svg="http://www.w3.org/2000/svg"
   xmlns="http://www.w3.org/2000/svg"
   xmlns:sodipodi="http://sodipodi.sourceforge.net/DTD/sodipodi-0.dtd"
   xmlns:inkscape="http://www.inkscape.org/namespaces/inkscape"
   xml:space="preserve"
   width="23.5236in"
   height="26.1008in"
   version="1.0"
   shape-rendering="geometricPrecision"
   text-rendering="geometricPrecision"
   image-rendering="optimizeQuality"
   fill-rule="evenodd"
   clip-rule="evenodd"
   viewBox="0 0 1959 2174"
   id="svg2"
   inkscape:version="0.91 r13725"
   sodipodi:docname="keys.svg"><metadata
     id="metadata15"><rdf:RDF><cc:Work
         rdf:about=""><dc:format>image/svg+xml</dc:format><dc:type
           rdf:resource="http://purl.org/dc/dcmitype/StillImage" /></cc:Work></rdf:RDF></metadata><defs
     id="defs13" /><sodipodi:namedview
     pagecolor="#ffffff"
     bordercolor="#666666"
     borderopacity="1"
     objecttolerance="10"
     gridtolerance="10"
     guidetolerance="10"
     inkscape:pageopacity="0"
     inkscape:pageshadow="2"
     inkscape:window-width="1325"
     inkscape:window-height="885"
     id="namedview11"
     showgrid="false"
     inkscape:zoom="0.10046521"
     inkscape:cx="959.35787"
     inkscape:cy="860.14667"
     inkscape:window-x="63"
     inkscape:window-y="34"
     inkscape:window-maximized="0"
     inkscape:current-layer="svg2" /><g
     id="Layer_x0020_1"
     style="fill:#ffffff"><metadata
       id="CorelCorpID_0Corel-Layer" /><g
       id="_2849183154992"
       style="fill:#ffffff"><path
         fill="#BA70FF"
         d="M1182 1082c178,178 467,178 644,0 178,-178 178,-466 0,-644l-305 -305c-177,-177 -466,-177 -644,0 -177,178 -177,467 0,644l66 66 -932 932c-15,14 -15,38 0,52l121 121c15,15 38,15 53,0l15 -15 231 230c14,15 38,15 52,0l161 -160c14,-15 14,-38 0,-53l-97 -97 106 -106c14,-15 14,-38 0,-53l-107 -107 571 -571 65 66zm-252 -896c148,-149 390,-149 539,0l305 304c148,149 148,391 0,540 -149,148 -391,148 -539,0l-305 -305c-149,-149 -149,-391 0,-539zm-356 1534l-106 107c-14,14 -14,38 0,52l97 97 -108 109 -204 -205 241 -240 80 80zm-416 150l-69 -69 906 -906 69 69 -906 906z"
         id="path7"
         style="fill:#ffffff" /><path
         fill="#BA70FF"
         d="M1674 930c93,-94 93,-246 0,-339l-305 -305c-94,-94 -246,-94 -339,0 -94,93 -94,245 0,339l305 305c93,93 245,93 339,0l0 0zm-592 -592c65,-65 170,-65 234,0l305 305c65,64 65,170 0,234 -64,65 -169,65 -234,0l-305 -305c-64,-64 -64,-169 0,-234z"
         id="path9"
         style="fill:#ffffff" /></g></g></svg>