<?xml version="1.0" encoding="UTF-8"?>
<!DOCTYPE svg PUBLIC "-//W3C//DTD SVG 1.0//EN" "http://www.w3.org/TR/2001/REC-SVG-20010904/DTD/svg10.dtd">
<!-- Creator: CorelDRAW X8 -->
<svg xmlns="http://www.w3.org/2000/svg" xml:space="preserve" width="10.4075in" height="8.64439in" version="1.0" shape-rendering="geometricPrecision" text-rendering="geometricPrecision" image-rendering="optimizeQuality" fill-rule="evenodd" clip-rule="evenodd"
viewBox="0 0 12009 9974"
 xmlns:xlink="http://www.w3.org/1999/xlink">
 <g id="Layer_x0020_1">
  <metadata id="CorelCorpID_0Corel-Layer"/>
  <g id="_2242023695392">
   <g>
    <path fill="#FF5112" d="M11334 4046l19 4 -8036 0 2526 -2532c124,-124 191,-291 191,-467 0,-176 -67,-342 -191,-466l-393 -393c-124,-124 -288,-192 -464,-192 -176,0 -341,68 -464,191l-4331 4330c-124,124 -191,290 -191,466 0,176 67,342 191,466l4331 4330c123,124 288,191 464,191 176,0 340,-68 464,-191l393 -393c124,-124 191,-288 191,-464 0,-176 -67,-332 -191,-455l-2555 -2546 8055 0c362,0 666,-312 666,-674l0 -556c0,-362 -313,-649 -675,-649z"/>
   </g>
  </g>
 </g>
</svg>
