<?xml version="1.0" encoding="UTF-8"?>
<!DOCTYPE svg PUBLIC "-//W3C//DTD SVG 1.0//EN" "http://www.w3.org/TR/2001/REC-SVG-20010904/DTD/svg10.dtd">
<!-- Creator: CorelDRAW X8 -->
<svg xmlns="http://www.w3.org/2000/svg" xml:space="preserve" width="32.9072in" height="43.1414in" version="1.0" shape-rendering="geometricPrecision" text-rendering="geometricPrecision" image-rendering="optimizeQuality" fill-rule="evenodd" clip-rule="evenodd"
viewBox="0 0 26513 34759"
 xmlns:xlink="http://www.w3.org/1999/xlink">
 <defs>
   <clipPath id="id0">
    <path d="M19951 14597c64,12 -1489,-5983 707,-13982 -4915,-820 -9888,-820 -14803,0 2196,7999 643,13994 707,13982l13389 0zm0 0l0 0 0 0z"/>
   </clipPath>
   <clipPath id="id1">
    <path d="M9451 163c-1201,102 -2400,253 -3596,452 2196,7999 643,13994 707,13982l3528 0c64,-3318 57,-9418 -639,-14434z"/>
   </clipPath>
   <clipPath id="id2">
    <path d="M11641 24465l3231 0c530,0 963,433 963,963l0 0c0,530 -433,964 -963,964l-3231 0c-530,0 -964,-434 -964,-964l0 0c0,-530 434,-963 964,-963z"/>
   </clipPath>
 </defs>
 <g id="Layer_x0020_1">
  <metadata id="CorelCorpID_0Corel-Layer"/>
  <g>
   <path fill="#FFD3AE" d="M19635 13484c0,0 2182,9537 -1073,10362 -1885,477 -3366,102 -4279,-298 -660,-290 -1393,-290 -2053,0 -913,400 -2394,776 -4279,298 -3256,-825 -1073,-10362 -1073,-10362l12757 0zm0 0l0 0 0 0z"/>
  </g>
  <path fill="#E2B08F" d="M20155 16559c-4585,426 -9212,426 -13797,0 212,-1727 520,-3075 520,-3075l12757 0c0,0 308,1348 520,3075z"/>
  <g>
   <path fill="#8CC63F" d="M19951 14597c64,12 -1489,-5983 707,-13982 -4915,-820 -9888,-820 -14803,0 2196,7999 643,13994 707,13982l13389 0zm0 0l0 0 0 0z"/>
  </g>
  <g clip-path="url(#id0)">
   <g>
    <rect fill="#6421A4" x="4627" y="7363" width="15692" height="4351"/>
   </g>
  </g>
  <path fill="none" d="M19951 14597c64,12 -1489,-5983 707,-13982 -4915,-820 -9888,-820 -14803,0 2196,7999 643,13994 707,13982m13389 0l0 0 0 0z"/>
  <path fill="#EF602E" d="M20896 19984l1012 6679 -1518 -169 -1349 4520 -2428 0 -3356 3745 -3357 -3745 -2428 0 -1349 -4520 -1518 169 1012 -6679 -1721 0 1426 -3528 679 -1682 1902 11c0,0 -207,795 -378,1873 -258,1623 -434,3888 306,5048 228,358 544,611 973,706 1582,352 2825,76 3591,-219 555,-213 1169,-213 1723,0 767,295 2009,571 3591,219 1813,-402 1617,-3628 1280,-5754 -171,-1078 -379,-1873 -379,-1873l1902 -11 679 1682 1426 3528 -1721 0 0 0z"/>
  <path fill="#DB4E23" d="M10873 27897l-1280 547 -443 -3700 -1965 589 646 -3627c-740,-1160 -564,-3425 -307,-5048 172,-1078 379,-1873 379,-1873l-1902 -11 -679 1682 -1426 3528 1720 0 -1012 6679 1518 -169 1350 4520 2428 0 3356 3745 -2383 -6862z"/>
  <path fill="#7EAF31" d="M9451 163c-1201,102 -2400,253 -3596,452 2196,7999 643,13994 707,13982l3528 0c64,-3318 57,-9418 -639,-14434z"/>
  <g clip-path="url(#id1)">
   <g>
    <rect fill="#390E5E" x="4627" y="7363" width="15692" height="4351"/>
   </g>
  </g>
  <path fill="none" d="M9451 163c-1201,102 -2400,253 -3596,452 2196,7999 643,13994 707,13982l3528 0c64,-3318 57,-9418 -639,-14434z"/>
  <path fill="#DB4E23" d="M6001 14774l1902 11c0,0 -207,795 -379,1873 -735,-56 -1469,-124 -2202,-202l679 -1682z"/>
  <path fill="#DB4E23" d="M21191 16456c-733,78 -1467,146 -2203,202 -170,-1078 -378,-1873 -378,-1873l1902 -11 679 1682z"/>
  <path fill="#5D9613" d="M13257 15490c-4290,0 -8579,-371 -12838,-1113 -275,-48 -459,-310 -411,-585 48,-276 310,-460 585,-412 8403,1464 16924,1464 25327,0 275,-48 537,136 585,412 48,275 -136,537 -411,585 -4259,742 -8548,1113 -12837,1113z"/>
  <path fill="#333333" d="M10119 20389c-279,0 -506,-227 -506,-506l0 -1822c0,-279 227,-506 506,-506 280,0 506,227 506,506l0 1822c0,279 -226,506 -506,506z"/>
  <path fill="#333333" d="M16394 20389c-280,0 -506,-227 -506,-506l0 -1822c0,-279 226,-506 506,-506 279,0 505,227 505,506l0 1822c0,279 -226,506 -505,506z"/>
  <path fill="black" d="M13082 7038l-2217 0 0 3828 2217 1280 0 -2898 0 -620 -1160 0 568 620 0 1864c0,0 -1009,-583 -1009,-583 0,0 0,-2872 0,-2872l1601 0 0 -619z"/>
  <path fill="black" d="M13431 7038l2217 0 0 3828 -2217 1280 0 -2898 0 -620 1160 0 -568 620 0 1864c0,0 1009,-583 1009,-583 0,0 0,-2872 0,-2872l-1601 0 0 -619z"/>
  <path fill="#F2F2F2" d="M13082 6870l-2217 0 0 3828 2217 1281 0 -2899 0 -619 -1160 0 568 619 0 1864c0,0 -1009,-583 -1009,-583 0,0 0,-2871 0,-2871l1601 0 0 -620z"/>
  <path fill="#FF5112" d="M13431 6870l2217 0 0 3828 -2217 1281 0 -2899 0 -619 1160 0 -568 619 0 1864c0,0 1009,-583 1009,-583 0,0 0,-2871 0,-2871l-1601 0 0 -620z"/>
  <path fill="#333333" d="M11641 24465l3231 0c530,0 963,433 963,963l0 0c0,530 -433,964 -963,964l-3231 0c-530,0 -964,-434 -964,-964l0 0c0,-530 434,-963 964,-963z"/>
  <g clip-path="url(#id2)">
   <g>
    <rect fill="white" x="10044" y="25506" width="6425" height="996"/>
    <rect fill="white" x="10044" y="24368" width="6425" height="996"/>
   </g>
  </g>
  <path fill="none" stroke="#1A1A1A" stroke-width="134.281" d="M11641 24465l3231 0c530,0 963,433 963,963l0 0c0,530 -433,964 -963,964l-3231 0c-530,0 -964,-434 -964,-964l0 0c0,-530 434,-963 964,-963z"/>
 </g>
</svg>
