<?xml version="1.0" encoding="UTF-8"?>
<!DOCTYPE svg PUBLIC "-//W3C//DTD SVG 1.0//EN" "http://www.w3.org/TR/2001/REC-SVG-20010904/DTD/svg10.dtd">
<!-- Creator: CorelDRAW X8 -->
<svg xmlns="http://www.w3.org/2000/svg" xml:space="preserve" width="1.52744in" height="0.594in" version="1.0" style="shape-rendering:geometricPrecision; text-rendering:geometricPrecision; image-rendering:optimizeQuality; fill-rule:evenodd; clip-rule:evenodd"
viewBox="0 0 38 15"
 xmlns:xlink="http://www.w3.org/1999/xlink">
 <defs>
  <style type="text/css">
   <![CDATA[
    .fil0 {fill:#333333}
   ]]>
  </style>
 </defs>
 <g id="Layer_x0020_1">
  <metadata id="CorelCorpID_0Corel-Layer"/>
  <path class="fil0" d="M3 15c-2,0 -3,-1 -3,-3l0 -9c0,-2 1,-3 3,-3 1,0 2,1 2,3l0 9c0,2 -1,3 -2,3z"/>
  <path class="fil0" d="M35 15c-1,0 -2,-1 -2,-3l0 -9c0,-2 1,-3 2,-3 2,0 3,1 3,3l0 9c0,2 -1,3 -3,3z"/>
 </g>
</svg>
