<?xml version="1.0" encoding="UTF-8"?>
<!DOCTYPE svg PUBLIC "-//W3C//DTD SVG 1.0//EN" "http://www.w3.org/TR/2001/REC-SVG-20010904/DTD/svg10.dtd">
<!-- Creator: CorelDRAW X8 -->
<svg xmlns="http://www.w3.org/2000/svg" xml:space="preserve" width="5.55813in" height="3.24729in" version="1.0" style="shape-rendering:geometricPrecision; text-rendering:geometricPrecision; image-rendering:optimizeQuality; fill-rule:evenodd; clip-rule:evenodd"
viewBox="0 0 537 314"
 xmlns:xlink="http://www.w3.org/1999/xlink">
 <defs>
  <style type="text/css">
   <![CDATA[
    .fil2 {fill:none}
    .fil6 {fill:#333333}
    .fil4 {fill:#390E5E}
    .fil5 {fill:#5D9613}
    .fil1 {fill:#6421A4}
    .fil3 {fill:#7EAF31}
    .fil0 {fill:#8CC63F}
    .fil7 {fill:#F2F2F2}
    .fil8 {fill:#FF5112}
   ]]>
  </style>
   <clipPath id="id0">
    <path d="M404 296c1,0 -30,-122 14,-284 -99,-16 -200,-16 -299,0 44,162 13,284 14,284l271 0zm0 0l0 0 0 0z"/>
   </clipPath>
   <clipPath id="id1">
    <path d="M201 3c-24,2 -49,4 -73,8 44,162 13,285 15,285l71 0c1,-68 1,-192 -13,-293z"/>
   </clipPath>
 </defs>
 <g id="Layer_x0020_1">
  <metadata id="CorelCorpID_0Corel-Layer"/>
  <g>
   <path class="fil0" d="M404 296c1,0 -30,-122 14,-284 -99,-16 -200,-16 -299,0 44,162 13,284 14,284l271 0zm0 0l0 0 0 0z"/>
  </g>
  <g style="clip-path:url(#id0)">
   <g>
    <rect class="fil1" x="94" y="149" width="317.726" height="88.1024"/>
   </g>
  </g>
  <path class="fil2" d="M404 296c1,0 -30,-122 14,-284 -99,-16 -200,-16 -299,0 44,162 13,284 14,284m271 0l0 0 0 0z"/>
  <path class="fil3" d="M201 3c-24,2 -49,4 -73,8 44,162 13,285 15,285l71 0c1,-68 1,-192 -13,-293z"/>
  <g style="clip-path:url(#id1)">
   <g>
    <rect class="fil4" x="103" y="149" width="317.726" height="88.1024"/>
   </g>
  </g>
  <path class="fil2" d="M201 3c-24,2 -49,4 -73,8 44,162 13,285 15,285l71 0c1,-68 1,-192 -13,-293z"/>
  <path class="fil5" d="M268 314c-86,0 -173,-8 -260,-23 -5,-1 -9,-6 -8,-12 1,-5 6,-9 12,-8 170,30 343,30 513,0 5,-1 11,3 12,8 1,6 -3,11 -9,12 -86,15 -173,23 -260,23z"/>
  <path class="fil6" d="M235 154c0,18 0,36 0,54 5,4 10,7 16,10l0 -33 -15 -16 31 0 0 77 -49 -28 0 -81 49 0 0 17 -32 0zm51 31l0 33c5,-3 11,-6 16,-10 0,-18 0,-36 0,-54l-32 0 0 -17 49 0 0 81 -49 28 0 -77 31 0 -15 16z"/>
  <g>
   <path class="fil7" d="M265 139l-45 0 0 78 45 26 0 -59 0 -13 -24 0 12 13 0 38c0,0 -21,-12 -21,-12 0,0 0,-58 0,-58l33 0 0 -13z"/>
   <path class="fil8" d="M272 139l45 0 0 78 -45 26 0 -59 0 -13 23 0 -11 13 0 38c0,0 20,-12 20,-12 0,0 0,-58 0,-58l-32 0 0 -13z"/>
  </g>
 </g>
</svg>
