<?xml version="1.0" encoding="UTF-8"?>
<!DOCTYPE svg PUBLIC "-//W3C//DTD SVG 1.0//EN" "http://www.w3.org/TR/2001/REC-SVG-20010904/DTD/svg10.dtd">
<!-- Creator: CorelDRAW X8 -->
<svg xmlns="http://www.w3.org/2000/svg" xml:space="preserve" width="32.9072in" height="43.1414in" version="1.0" shape-rendering="geometricPrecision" text-rendering="geometricPrecision" image-rendering="optimizeQuality" fill-rule="evenodd" clip-rule="evenodd"
viewBox="0 0 7352 9638"
 xmlns:xlink="http://www.w3.org/1999/xlink">
 <defs>
   <clipPath id="id0">
    <path d="M5532 4048c18,3 -413,-1659 196,-3877 -1363,-228 -2742,-228 -4105,0 609,2218 179,3880 196,3877l3713 0zm0 0l0 0 0 0z"/>
   </clipPath>
   <clipPath id="id1">
    <path d="M2621 45c-333,29 -666,70 -998,126 609,2218 179,3880 196,3877l979 0c17,-920 16,-2612 -177,-4003z"/>
   </clipPath>
   <clipPath id="id2">
    <path d="M4262 7311c0,-84 -18,-164 -50,-237 -91,-205 -297,-349 -536,-349 -240,0 -446,144 -536,349 -33,73 -50,153 -50,237l1172 0z"/>
   </clipPath>
 </defs>
 <g id="Layer_x0020_1">
  <metadata id="CorelCorpID_0Corel-Layer"/>
  <g>
   <path fill="#FFD3AE" d="M5445 3739c0,0 605,2644 -298,2873 -523,133 -933,29 -1186,-82 -184,-81 -387,-81 -570,0 -253,111 -664,215 -1186,82 -903,-229 -298,-2873 -298,-2873l3538 0zm0 0l0 0 0 0z"/>
  </g>
  <path fill="#E2B08F" d="M5589 4592c-1272,118 -2555,118 -3826,0 59,-479 144,-853 144,-853l3537 0c0,0 86,374 145,853z"/>
  <g>
   <path fill="#8CC63F" d="M5532 4048c18,3 -413,-1659 196,-3877 -1363,-228 -2742,-228 -4105,0 609,2218 179,3880 196,3877l3713 0zm0 0l0 0 0 0z"/>
  </g>
  <g clip-path="url(#id0)">
   <g>
    <rect fill="#6421A4" x="1283" y="2042" width="4351" height="1207"/>
   </g>
  </g>
  <path fill="none" d="M5532 4048c18,3 -413,-1659 196,-3877 -1363,-228 -2742,-228 -4105,0 609,2218 179,3880 196,3877m3713 0l0 0 0 0z"/>
  <path fill="#EF602E" d="M5794 5541l281 1852 -421 -47 -374 1254 -673 0 -931 1038 -931 -1038 -673 0 -374 -1254 -421 47 280 -1852 -477 0 396 -978 188 -466 527 3c0,0 -57,220 -105,519 -71,450 -120,1078 85,1400 64,99 151,169 270,196 439,97 784,21 996,-61 154,-59 324,-59 478,0 212,82 557,158 996,61 502,-112 448,-1006 354,-1596 -47,-299 -105,-519 -105,-519l528 -3 188 466 395 978 -477 0 0 0z"/>
  <path fill="#DB4E23" d="M3015 7735l-355 152 -123 -1026 -545 163 179 -1005c-205,-322 -156,-950 -85,-1400 48,-299 105,-519 105,-519l-527 -3 -188 466 -396 978 477 0 -280 1852 421 -47 374 1254 673 0 931 1038 -661 -1903z"/>
  <path fill="#7EAF31" d="M2621 45c-333,29 -666,70 -998,126 609,2218 179,3880 196,3877l979 0c17,-920 16,-2612 -177,-4003z"/>
  <g clip-path="url(#id1)">
   <g>
    <rect fill="#390E5E" x="1283" y="2042" width="4351" height="1207"/>
   </g>
  </g>
  <path fill="none" d="M2621 45c-333,29 -666,70 -998,126 609,2218 179,3880 196,3877l979 0c17,-920 16,-2612 -177,-4003z"/>
  <path fill="#DB4E23" d="M1664 4097l527 3c0,0 -57,220 -105,519 -203,-15 -407,-34 -610,-56l188 -466z"/>
  <path fill="#DB4E23" d="M5876 4563c-203,22 -407,41 -611,56 -47,-299 -105,-519 -105,-519l528 -3 188 466z"/>
  <path fill="#5D9613" d="M3676 4295c-1189,0 -2379,-103 -3560,-308 -76,-14 -127,-86 -114,-163 13,-76 86,-127 162,-114 2330,406 4693,406 7023,0 77,-13 149,38 163,114 13,77 -38,149 -115,163 -1181,205 -2370,308 -3559,308z"/>
  <path fill="#333333" d="M2806 5654c-78,0 -140,-63 -140,-141l0 -505c0,-77 62,-140 140,-140 77,0 140,63 140,140l0 505c0,78 -63,141 -140,141z"/>
  <path fill="#333333" d="M4546 5654c-78,0 -141,-63 -141,-141l0 -505c0,-77 63,-140 141,-140 77,0 140,63 140,140l0 505c0,78 -63,141 -140,141z"/>
  <path fill="#333333" d="M4262 7311c0,-84 -18,-164 -50,-237 -91,-205 -297,-349 -536,-349 -240,0 -446,144 -536,349 -33,73 -50,153 -50,237l1172 0z"/>
  <g clip-path="url(#id2)">
   <g>
    <g>
     <rect fill="white" x="3388" y="7152" width="248" height="248"/>
     <rect fill="white" x="3715" y="7152" width="248" height="248"/>
    </g>
   </g>
  </g>
  <path fill="none" d="M4262 7311c0,-84 -18,-164 -50,-237 -91,-205 -297,-349 -536,-349 -240,0 -446,144 -536,349 -33,73 -50,153 -50,237l1172 0z"/>
  <path fill="black" d="M3627 1952l-614 0 0 1061 614 355 0 -804 0 -171 -321 0 157 171 0 517c0,0 -280,-161 -280,-161 0,0 0,-797 0,-797l444 0 0 -171z"/>
  <path fill="black" d="M3724 1952l615 0 0 1061 -615 355 0 -804 0 -171 322 0 -158 171 0 517c0,0 280,-161 280,-161 0,0 0,-797 0,-797l-444 0 0 -171z"/>
  <path fill="#F2F2F2" d="M3627 1905l-614 0 0 1062 614 354 0 -803 0 -172 -321 0 157 172 0 517c0,0 -280,-162 -280,-162 0,0 0,-796 0,-796l444 0 0 -172z"/>
  <path fill="#FF5112" d="M3724 1905l615 0 0 1062 -615 354 0 -803 0 -172 322 0 -158 172 0 517c0,0 280,-162 280,-162 0,0 0,-796 0,-796l-444 0 0 -172z"/>
 </g>
</svg>
