<?xml version="1.0" encoding="UTF-8"?>
<!DOCTYPE svg PUBLIC "-//W3C//DTD SVG 1.0//EN" "http://www.w3.org/TR/2001/REC-SVG-20010904/DTD/svg10.dtd">
<!-- Creator: CorelDRAW X8 -->
<svg xmlns="http://www.w3.org/2000/svg" xml:space="preserve" width="53.1362in" height="53.1362in" version="1.0" shape-rendering="geometricPrecision" text-rendering="geometricPrecision" image-rendering="optimizeQuality" fill-rule="evenodd" clip-rule="evenodd"
viewBox="0 0 3127 3127"
 xmlns:xlink="http://www.w3.org/1999/xlink">
 <g id="Layer_x0020_1">
  <metadata id="CorelCorpID_0Corel-Layer"/>
  <g id="_1397491838528">
   <g>
    <g>
     <path fill="white" d="M2033 782l0 1146c0,29 23,53 52,53 29,0 52,-24 52,-53l0 -1146c0,-29 -23,-52 -52,-52 -29,0 -52,23 -52,52z"/>
     <path fill="white" d="M990 782l0 1146c0,29 24,53 52,53 29,0 52,-24 52,-53l0 -1146c0,-29 -23,-52 -52,-52 -28,0 -52,23 -52,52z"/>
     <path fill="white" d="M829 1073c-8,-19 -27,-31 -47,-31l-417 0c-29,0 -52,24 -52,53l0 52c0,28 23,52 52,52 29,0 52,-24 52,-52l257 0c-87,117 -229,332 -253,521l-4 0c-29,0 -52,23 -52,52 0,29 23,52 52,52l104 0c29,0 52,-23 52,-52 0,-27 -21,-49 -47,-51 35,-234 293,-537 295,-541 14,-15 17,-37 8,-55z"/>
     <path fill="white" d="M1616 1616c0,86 70,156 156,156 86,0 156,-70 156,-156 0,-76 -54,-140 -126,-154 -31,-51 -110,-210 -34,-400 8,-20 3,-42 -12,-57 -15,-15 -37,-19 -57,-11 -313,135 -378,375 -392,474 -63,20 -108,78 -108,148 0,86 70,156 156,156 86,0 156,-70 156,-156 0,-67 -41,-123 -99,-146 12,-70 57,-216 226,-326 -23,147 21,268 56,337 -47,27 -78,77 -78,135zm156 -52c29,0 52,23 52,52 0,28 -23,52 -52,52 -29,0 -52,-24 -52,-52 0,-29 23,-52 52,-52zm-417 104c-29,0 -52,-24 -52,-52 0,-29 23,-52 52,-52 29,0 52,23 52,52 0,28 -23,52 -52,52z"/>
     <path fill="white" d="M2810 1073c-9,-19 -27,-31 -48,-31l-417 0c-28,0 -52,24 -52,53l0 52c0,28 24,52 52,52 29,0 52,-24 52,-52l258 0c-88,117 -230,332 -254,521l-4 0c-28,0 -52,23 -52,52 0,29 24,52 52,52l105 0c28,0 52,-23 52,-52 0,-27 -21,-49 -48,-51 36,-234 293,-537 296,-541 13,-15 16,-37 8,-55z"/>
     <path fill="white" d="M3075 2293c-29,0 -52,24 -52,52l0 522c0,86 -70,156 -156,156l-2606 0c-87,0 -157,-70 -157,-156l0 -2242 2763 0c28,0 52,-23 52,-52 0,-28 -24,-52 -52,-52l-2815 0c-29,0 -52,24 -52,52l0 2294c0,143 117,260 261,260l2606 0c143,0 260,-117 260,-260l0 -522c0,-28 -23,-52 -52,-52z"/>
     <path fill="white" d="M834 2606c0,-115 -94,-209 -209,-209 -115,0 -208,94 -208,209 0,115 93,208 208,208 115,0 209,-93 209,-208zm-313 0c0,-58 47,-104 104,-104 58,0 105,46 105,104 0,57 -47,104 -105,104 -57,0 -104,-47 -104,-104z"/>
     <path fill="white" d="M2710 2762l0 -312c0,-29 -23,-53 -52,-53 -29,0 -52,24 -52,53l0 312c0,29 23,52 52,52 29,0 52,-23 52,-52z"/>
     <path fill="white" d="M2867 0l-2606 0c-144,0 -261,117 -261,261l0 104c0,29 23,52 52,52 29,0 52,-23 52,-52l0 -104c0,-87 70,-157 157,-157l2606 0c86,0 156,70 156,157l0 1824 -2815 0c-28,0 -52,23 -52,52 0,29 24,52 52,52l2867 0c29,0 52,-23 52,-52l0 -1876c0,-144 -117,-261 -260,-261z"/>
     <path fill="white" d="M2502 2762l0 -312c0,-29 -24,-53 -52,-53 -29,0 -53,24 -53,53l0 312c0,29 24,52 53,52 28,0 52,-23 52,-52z"/>
     <path fill="white" d="M2293 2762l0 -312c0,-29 -23,-53 -52,-53 -29,0 -52,24 -52,53l0 312c0,29 23,52 52,52 29,0 52,-23 52,-52z"/>
     <path fill="white" d="M1355 2606c0,-115 -93,-209 -208,-209 -115,0 -209,94 -209,209 0,115 94,208 209,208 115,0 208,-93 208,-208zm-313 0c0,-58 47,-104 105,-104 57,0 104,46 104,104 0,57 -47,104 -104,104 -58,0 -105,-47 -105,-104z"/>
     <path fill="white" d="M1876 2606c0,-115 -93,-209 -208,-209 -115,0 -209,94 -209,209 0,115 94,208 209,208 115,0 208,-93 208,-208zm-312 0c0,-58 46,-104 104,-104 57,0 104,46 104,104 0,57 -47,104 -104,104 -58,0 -104,-47 -104,-104z"/>
    </g>
   </g>
  </g>
 </g>
</svg>
