<?xml version="1.0" encoding="UTF-8"?>
<!DOCTYPE svg PUBLIC "-//W3C//DTD SVG 1.0//EN" "http://www.w3.org/TR/2001/REC-SVG-20010904/DTD/svg10.dtd">
<!-- Creator: CorelDRAW X8 -->
<svg xmlns="http://www.w3.org/2000/svg" xml:space="preserve" width="16.1171in" height="16.117in" version="1.0" shape-rendering="geometricPrecision" text-rendering="geometricPrecision" image-rendering="optimizeQuality" fill-rule="evenodd" clip-rule="evenodd"
viewBox="0 0 215 215"
 xmlns:xlink="http://www.w3.org/1999/xlink">
 <g id="Layer_x0020_1">
  <metadata id="CorelCorpID_0Corel-Layer"/>
  <path fill="#6421A4" d="M204 85l-15 -3c-2,-5 -4,-10 -6,-14l8 -13c4,-5 4,-12 -1,-17l-13 -13c-3,-3 -6,-4 -10,-4 -2,0 -5,1 -7,2l-13 9c-5,-2 -10,-4 -15,-6l-3 -15c-1,-6 -6,-11 -13,-11l-19 0c-6,0 -12,5 -13,11l-2 15c-5,2 -10,4 -15,6l-12 -8c-2,-2 -5,-3 -8,-3 -3,0 -7,2 -9,4l-14 13c-4,5 -5,12 -1,17l9 13c-3,5 -5,10 -6,15l-15 2c-6,1 -11,7 -11,13l0 19c0,7 5,12 11,13l15 3c2,5 4,10 6,15l-8 12c-4,5 -4,12 1,17l13 13c3,3 6,4 10,4 3,0 5,-1 7,-2l13 -9c5,2 9,4 14,6l3 15c1,6 6,11 13,11l19 0c6,0 12,-5 13,-11l2 -15c6,-2 10,-4 15,-7l12 9c3,2 5,3 8,3l0 0c4,0 7,-2 10,-4l13 -13c5,-5 5,-12 1,-18l-9 -12c3,-5 5,-10 7,-15l15 -2c6,-1 11,-7 11,-13l0 -19c0,-7 -5,-12 -11,-13zm-1 32c0,0 -1,1 -1,1l-19 3c-3,0 -4,2 -5,5 -2,6 -4,12 -8,18 -1,2 -1,5 0,7l12 16c0,0 0,1 -1,1l-13 13c0,1 -1,1 -1,1 0,0 0,0 0,0l-16 -12c-2,-1 -5,-1 -7,0 -6,4 -12,6 -18,8 -3,1 -5,3 -5,5l-3 19c0,0 -1,1 -1,1l-19 0c-1,0 -1,-1 -1,-1l-3 -19c-1,-3 -3,-4 -5,-5 -6,-2 -12,-4 -18,-8 -1,0 -2,0 -3,0 -1,0 -3,0 -4,1l-15 11c-1,0 -1,0 -1,0 0,0 -1,0 -1,0l-13 -14c-1,0 -1,-1 0,-1l11 -16c1,-2 1,-4 0,-6 -4,-6 -6,-12 -8,-19 -1,-2 -3,-4 -5,-4l-19 -4c0,0 -1,0 -1,-1l0 -19c0,0 1,-1 1,-1l19 -3c2,0 4,-2 5,-4 1,-7 4,-13 7,-19 2,-2 1,-5 0,-7l-11 -16c0,0 0,-1 0,-1l13 -13c1,-1 1,-1 1,-1 0,0 1,0 1,0l15 11c2,2 5,2 7,1 6,-4 12,-6 19,-8 2,-1 4,-3 4,-5l3 -19c1,-1 1,-1 2,-1l18 0c1,0 2,0 2,1l3 19c0,2 2,4 4,5 7,1 13,4 19,8 3,1 5,1 7,-1l16 -11c0,0 0,0 0,0 0,0 1,0 1,0l13 14c1,0 1,1 1,1l-11 16c-2,2 -2,4 -1,6 4,6 6,13 8,19 1,2 3,4 5,5l19 3c0,0 1,0 1,1l0 19 0 0z"/>
  <path fill="#6421A4" d="M107 61c-25,0 -46,21 -46,46 0,26 21,47 46,47 26,0 47,-21 47,-47 0,-25 -21,-46 -47,-46zm0 81c-19,0 -34,-16 -34,-35 0,-19 15,-34 34,-34 19,0 35,15 35,34 0,19 -16,35 -35,35z"/>
 </g>
</svg>
