<?xml version="1.0" encoding="UTF-8"?>
<!DOCTYPE svg PUBLIC "-//W3C//DTD SVG 1.0//EN" "http://www.w3.org/TR/2001/REC-SVG-20010904/DTD/svg10.dtd">
<!-- Creator: CorelDRAW X8 -->
<svg xmlns="http://www.w3.org/2000/svg" xml:space="preserve" width="32.9072in" height="43.1414in" version="1.0" shape-rendering="geometricPrecision" text-rendering="geometricPrecision" image-rendering="optimizeQuality" fill-rule="evenodd" clip-rule="evenodd"
viewBox="0 0 4220 5533"
 xmlns:xlink="http://www.w3.org/1999/xlink">
 <defs>
   <clipPath id="id0">
    <path d="M3176 2324c10,1 -237,-953 112,-2226 -782,-131 -1574,-131 -2356,0 350,1273 102,2227 112,2226l2132 0zm0 0l0 0 0 0z"/>
   </clipPath>
   <clipPath id="id1">
    <path d="M1504 26c-191,16 -382,40 -572,72 350,1273 102,2227 112,2226l562 0c10,-529 9,-1500 -102,-2298z"/>
   </clipPath>
   <clipPath id="id2">
    <path d="M2447 3861c0,48 -11,94 -29,136 -52,118 -170,200 -308,200 -137,0 -256,-82 -308,-200 -18,-42 -28,-88 -28,-136l673 0z"/>
   </clipPath>
 </defs>
 <g id="Layer_x0020_1">
  <metadata id="CorelCorpID_0Corel-Layer"/>
  <g>
   <path fill="#FFD3AE" d="M3125 2146c0,0 348,1518 -170,1650 -300,76 -536,16 -681,-48 -106,-46 -222,-46 -327,0 -146,64 -381,124 -681,48 -519,-132 -171,-1650 -171,-1650l2030 0zm0 0l0 0 0 0z"/>
  </g>
  <path fill="#E2B08F" d="M3208 2636c-730,68 -1466,68 -2196,0 34,-275 83,-490 83,-490l2030 0c0,0 49,215 83,490z"/>
  <g>
   <path fill="#8CC63F" d="M3176 2324c10,1 -237,-953 112,-2226 -782,-131 -1574,-131 -2356,0 350,1273 102,2227 112,2226l2132 0zm0 0l0 0 0 0z"/>
  </g>
  <g clip-path="url(#id0)">
   <g>
    <rect fill="#6421A4" x="737" y="1172" width="2498" height="693"/>
   </g>
  </g>
  <path fill="none" d="M3176 2324c10,1 -237,-953 112,-2226 -782,-131 -1574,-131 -2356,0 350,1273 102,2227 112,2226m2132 0l0 0 0 0z"/>
  <path fill="#EF602E" d="M3326 3181l161 1063 -241 -27 -215 720 -387 0 -534 596 -534 -596 -387 0 -214 -720 -242 27 161 -1063 -274 0 227 -562 108 -267 303 1c0,0 -33,127 -60,299 -41,258 -69,618 49,803 36,57 86,97 154,113 252,56 450,12 572,-35 88,-34 186,-34 274,0 122,47 320,91 572,35 289,-64 257,-578 204,-916 -28,-172 -61,-299 -61,-299l303 -1 108 267 227 562 -274 0 0 0z"/>
  <path fill="#DB4E23" d="M1731 4440l-204 88 -71 -589 -312 93 102 -577c-117,-185 -89,-545 -48,-803 27,-172 60,-299 60,-299l-303 -1 -108 267 -227 562 274 0 -161 1063 242 -27 214 720 387 0 534 596 -379 -1093z"/>
  <path fill="#7EAF31" d="M1504 26c-191,16 -382,40 -572,72 350,1273 102,2227 112,2226l562 0c10,-529 9,-1500 -102,-2298z"/>
  <g clip-path="url(#id1)">
   <g>
    <rect fill="#390E5E" x="737" y="1172" width="2498" height="693"/>
   </g>
  </g>
  <path fill="none" d="M1504 26c-191,16 -382,40 -572,72 350,1273 102,2227 112,2226l562 0c10,-529 9,-1500 -102,-2298z"/>
  <path fill="#DB4E23" d="M955 2352l303 1c0,0 -33,127 -60,299 -117,-9 -234,-20 -351,-33l108 -267z"/>
  <path fill="#DB4E23" d="M3373 2619c-117,13 -233,24 -350,33 -28,-172 -61,-299 -61,-299l303 -1 108 267z"/>
  <path fill="#5D9613" d="M2110 2466c-683,0 -1365,-59 -2043,-178 -44,-7 -73,-49 -66,-93 8,-44 50,-73 93,-65 1338,233 2694,233 4032,0 44,-8 85,21 93,65 8,44 -22,86 -65,93 -678,119 -1361,178 -2044,178z"/>
  <path fill="#333333" d="M1611 3245c-45,0 -81,-36 -81,-80l0 -290c0,-45 36,-81 81,-81 44,0 80,36 80,81l0 290c0,44 -36,80 -80,80z"/>
  <path fill="#333333" d="M2609 3245c-44,0 -80,-36 -80,-80l0 -290c0,-45 36,-81 80,-81 45,0 81,36 81,81l0 290c0,44 -36,80 -81,80z"/>
  <path fill="#333333" d="M2447 3861c0,48 -11,94 -29,136 -52,118 -170,200 -308,200 -137,0 -256,-82 -308,-200 -18,-42 -28,-88 -28,-136l673 0z"/>
  <g clip-path="url(#id2)">
   <g>
    <g>
     <rect fill="white" x="1945" y="3809" width="143" height="143"/>
     <rect fill="white" x="2133" y="3809" width="143" height="143"/>
    </g>
   </g>
  </g>
  <path fill="none" d="M2447 3861c0,48 -11,94 -29,136 -52,118 -170,200 -308,200 -137,0 -256,-82 -308,-200 -18,-42 -28,-88 -28,-136l673 0z"/>
  <path fill="black" d="M2082 1120l-353 0 0 610 353 203 0 -461 0 -99 -184 0 90 99 0 297c0,0 -161,-93 -161,-93 0,0 0,-457 0,-457l255 0 0 -99z"/>
  <path fill="black" d="M2138 1120l353 0 0 610 -353 203 0 -461 0 -99 185 0 -91 99 0 297c0,0 161,-93 161,-93 0,0 0,-457 0,-457l-255 0 0 -99z"/>
  <path fill="#F2F2F2" d="M2082 1094l-353 0 0 609 353 204 0 -462 0 -98 -184 0 90 98 0 297c0,0 -161,-93 -161,-93 0,0 0,-457 0,-457l255 0 0 -98z"/>
  <path fill="#FF5112" d="M2138 1094l353 0 0 609 -353 204 0 -462 0 -98 185 0 -91 98 0 297c0,0 161,-93 161,-93 0,0 0,-457 0,-457l-255 0 0 -98z"/>
 </g>
</svg>
